<?xml version="1.0" encoding="UTF-8"?>
<svg width="22px" height="23px" viewBox="0 0 22 23" version="1.1" xmlns="http://www.w3.org/2000/svg">
    <defs/>
    <g id="Symbols" stroke="none" stroke-width="1" fill="none" fill-rule="evenodd">
        <g id="facebook">
            <g>
                <path d="M10.9064708 22.5179201c-6.02352213 0-10.90654868-4.9963282-10.90654868-11.159416 0-6.16288848 4.88302655-11.15941593 10.90654868-11.15941593 6.0233274 0 10.906354 4.99652745 10.906354 11.15941593 0 6.1630878-4.8830266 11.159416-10.906354 11.159416z"
                      id="background" fill="#A7A7A7"/>
                <path d="M11.8674619 8.74663226V7.689437c0-.51495188.3358408-.63487492.571416-.63487492h1.4490796V4.78937136l-1.9959646-.00856593c-2.2153805 0-2.71884954 1.68948048-2.71884954 2.77077986v1.19504696H7.89188673V11.3901184h1.2921593v6.6095122h2.58353977v-6.6095122h1.9176992l.0926725-1.0382705.1429027-1.60521564h-2.0533983z"
                      id="fb" fill="#FFFFFF"/>
            </g>
        </g>
    </g>
</svg>
