<?xml version="1.0" encoding="UTF-8"?>
<svg width="111px" height="34px" viewBox="0 0 111 34" version="1.1" xmlns="http://www.w3.org/2000/svg" xmlns:xlink="http://www.w3.org/1999/xlink">
    <!-- Generator: Sketch 47.1 (45422) - http://www.bohemiancoding.com/sketch -->
    <title>eu-horizon-2020-1</title>
    <desc>Created with Sketch.</desc>
    <defs></defs>
    <g id="Page-1" stroke="none" stroke-width="1" fill="none" fill-rule="evenodd">
        <g id="Home-page" transform="translate(-151.000000, -2834.000000)" fill-rule="nonzero">
            <g id="Sponsors" transform="translate(-28.000000, 2758.000000)">
                <g id="eu-horizon-2020-1" transform="translate(179.000000, 76.000000)">
                    <g id="Asset-3">
                        <g id="Layer_2">
                            <g id="Calque_1">
                                <rect id="Rectangle-path" fill="#FFFFFF" x="0" y="0" width="49.9691379" height="33.7688"></rect>
                                <rect id="Rectangle-path" fill="#034EA2" x="0.959630542" y="0.9248" width="48.0471429" height="31.86752"></rect>
                                <polygon id="Shape" fill="#FFF200" points="23.9606897 7.86896 24.975 7.13456 25.9893103 7.86896 25.6038177 6.6776 26.631798 5.9432 25.3632266 5.9432 24.975 4.73824 24.5867734 5.9432 23.318202 5.9432 24.3461823 6.6776"></polygon>
                                <polygon id="Shape" fill="#FFF200" points="18.7141626 9.27248 19.7284729 8.53536 20.7400493 9.27248 20.3572906 8.08112 21.3852709 7.344 20.1166995 7.344 19.7284729 6.13904 19.3375123 7.34672 18.0689409 7.344 19.0996552 8.08112"></polygon>
                                <polygon id="Shape" fill="#FFF200" points="15.8899507 9.96608 15.5017241 11.17376 14.2304187 11.17376 15.261133 11.90816 14.8756404 13.09952 15.8899507 12.3624 16.9042611 13.09952 16.5160345 11.90816 17.5467488 11.17376 16.2781773 11.17376"></polygon>
                                <polygon id="Shape" fill="#FFF200" points="14.4819458 17.57664 15.4935222 18.31376 15.1080296 17.1224 16.1387438 16.38528 14.8701724 16.38528 14.4819458 15.18032 14.0937192 16.388 12.8224138 16.38528 13.8531281 17.1224 13.4676355 18.31376"></polygon>
                                <polygon id="Shape" fill="#FFF200" points="16.2781773 21.61584 15.8899507 20.40816 15.5017241 21.61584 14.2304187 21.61584 15.261133 22.35024 14.8756404 23.5416 15.8899507 22.80448 16.9042611 23.5416 16.5160345 22.35024 17.5467488 21.61584"></polygon>
                                <polygon id="Shape" fill="#FFF200" points="20.1249015 25.44288 19.7366749 24.23792 19.3484483 25.44288 18.0771429 25.44288 19.1078571 26.17728 18.7223645 27.36864 19.7366749 26.63152 20.7482512 27.36864 20.3627586 26.17728 21.3934729 25.44288"></polygon>
                                <polygon id="Shape" fill="#FFF200" points="25.3632266 26.83008 24.975 25.6224 24.5867734 26.83008 23.318202 26.83008 24.3461823 27.56448 23.9634236 28.75584 24.975 28.01872 25.9893103 28.75584 25.6038177 27.56448 26.634532 26.83008"></polygon>
                                <polygon id="Shape" fill="#FFF200" points="30.6042857 25.44288 30.2160591 24.23792 29.8278325 25.44288 28.5592611 25.44288 29.5872414 26.17728 29.2017488 27.36864 30.2160591 26.63152 31.2303695 27.36864 30.8421429 26.17728 31.8728571 25.44288"></polygon>
                                <polygon id="Shape" fill="#FFF200" points="34.4510099 21.61584 34.0627833 20.40816 33.6745567 21.61584 32.4059852 21.61584 33.4339655 22.35024 33.0484729 23.5416 34.0627833 22.80448 35.0770936 23.5416 34.688867 22.35024 35.7195813 21.61584"></polygon>
                                <polygon id="Shape" fill="#FFF200" points="37.1139163 16.37168 35.8426108 16.37168 35.4543842 15.16672 35.0661576 16.3744 33.7975862 16.37168 34.8283005 17.1088 34.4428079 18.29744 35.4543842 17.56032 36.4686946 18.29744 36.083202 17.1088"></polygon>
                                <polygon id="Shape" fill="#FFF200" points="33.0484729 13.0832 34.0627833 12.3488 35.0770936 13.0832 34.688867 11.89456 35.7195813 11.15744 34.4510099 11.15744 34.0627833 9.95248 33.6745567 11.16016 32.4059852 11.15744 33.4339655 11.89456"></polygon>
                                <polygon id="Shape" fill="#FFF200" points="30.2297291 6.13904 29.8442365 7.34672 28.572931 7.344 29.6009113 8.08112 29.2154187 9.27248 30.2324631 8.53536 31.2440394 9.27248 30.8585468 8.08112 31.8892611 7.344 30.6179557 7.344"></polygon>
                                <polygon id="Shape" fill="#414042" points="55.3168227 32.56928 55.3168227 26.06848 56.6838177 26.06848 56.6838177 28.56 59.2236946 28.56 59.2236946 26.06848 60.5906897 26.06848 60.5906897 32.572 59.2236946 32.572 59.2236946 29.66704 56.6756158 29.66704 56.6756158 32.56928"></polygon>
                                <path d="M65.8153448,31.98176 C65.407069,32.48224 64.7873645,32.73248 63.9562315,32.73248 C63.1250985,32.73248 62.5053941,32.48224 62.0971182,31.98176 C61.2841599,30.9135301 61.2841599,29.4378299 62.0971182,28.3696 C62.5053941,27.8618667 63.1250985,27.608 63.9562315,27.608 C64.7873645,27.608 65.407069,27.8618667 65.8153448,28.3696 C66.6283032,29.4378299 66.6283032,30.9135301 65.8153448,31.98176 L65.8153448,31.98176 Z M64.7955665,31.28 C65.1921969,30.5898633 65.1921969,29.7424567 64.7955665,29.05232 C64.5820905,28.8046412 64.2705089,28.6621055 63.9425616,28.6621055 C63.6146143,28.6621055 63.3030326,28.8046412 63.0895567,29.05232 C62.6901363,29.7417166 62.6901363,30.5906034 63.0895567,31.28 C63.3020183,31.5293754 63.6139745,31.6731596 63.9425616,31.6731596 C64.2711486,31.6731596 64.5831048,31.5293754 64.7955665,31.28 L64.7955665,31.28 Z" id="Shape" fill="#414042"></path>
                                <path d="M70.0147537,27.6488 L70.1241133,27.6488 L70.1241133,28.93808 L69.9108621,28.92176 L69.7604926,28.92176 C69.2519704,28.92176 68.9102217,29.0867733 68.7352463,29.4168 C68.6209452,29.6874451 68.5704431,29.9805327 68.5876108,30.2736 L68.5876108,32.572 L67.3135714,32.572 L67.3135714,27.76032 L68.5192611,27.76032 L68.5192611,28.59808 C68.6538908,28.3533259 68.8264229,28.1311916 69.0305172,27.93984 C69.2919397,27.7342472 69.6189481,27.6290202 69.9518719,27.64336 L70.0147537,27.6488 Z" id="Shape" fill="#414042"></path>
                                <path d="M72.1773399,27.2 L70.8950985,27.2 L70.8950985,26.02768 L72.1773399,26.02768 L72.1773399,27.2 Z M70.8950985,27.77392 L72.1773399,27.77392 L72.1773399,32.58288 L70.8950985,32.58288 L70.8950985,27.77392 Z" id="Shape" fill="#414042"></path>
                                <polygon id="Shape" fill="#414042" points="73.1123645 28.78576 73.1123645 27.76304 76.9399507 27.76304 76.9399507 28.80752 74.5668473 31.52752 77.0274384 31.52752 77.0274384 32.56112 72.9455911 32.56112 72.9455911 31.58192 75.3405665 28.77488"></polygon>
                                <path d="M81.9595567,31.98176 C81.5512808,32.48224 80.9315764,32.73248 80.1004433,32.73248 C79.2693103,32.73248 78.6496059,32.48224 78.24133,31.98176 C77.4283717,30.9135301 77.4283717,29.4378299 78.24133,28.3696 C78.6496059,27.8618667 79.2693103,27.608 80.1004433,27.608 C80.9315764,27.608 81.5512808,27.8618667 81.9595567,28.3696 C82.772515,29.4378299 82.772515,30.9135301 81.9595567,31.98176 L81.9595567,31.98176 Z M80.9479803,31.28544 C81.3446107,30.5953033 81.3446107,29.7478967 80.9479803,29.05776 C80.7345043,28.8100812 80.4229227,28.6675455 80.0949754,28.6675455 C79.7670281,28.6675455 79.4554464,28.8100812 79.2419704,29.05776 C78.8425501,29.7471566 78.8425501,30.5960434 79.2419704,31.28544 C79.4544321,31.5348154 79.7663883,31.6785996 80.0949754,31.6785996 C80.4235624,31.6785996 80.7355186,31.5348154 80.9479803,31.28544 L80.9479803,31.28544 Z" id="Shape" fill="#414042"></path>
                                <path d="M87.3755911,28.03776 C87.692734,28.29888 87.8513054,28.7304533 87.8513054,29.33248 L87.8513054,32.572 L86.5553941,32.572 L86.5553941,29.648 C86.565584,29.4489047 86.5310264,29.2500537 86.4542365,29.06592 C86.3173086,28.8106726 86.0379127,28.6641477 85.748867,28.696 C85.3691454,28.6678853 85.0149834,28.8881039 84.8739901,29.24 C84.7843134,29.4732816 84.7424817,29.7220624 84.7509606,29.97168 L84.7509606,32.57472 L83.4878571,32.57472 L83.4878571,27.7712 L84.7126847,27.7712 L84.7126847,28.47296 C84.8340507,28.2672908 84.9893196,28.0833928 85.1719951,27.92896 C85.4587329,27.7264056 85.80484,27.6240612 86.1562315,27.63792 C86.5976171,27.6221925 87.030107,27.7640101 87.3755911,28.03776 L87.3755911,28.03776 Z" id="Shape" fill="#414042"></path>
                                <path d="M91.5394581,31.31264 C91.7217241,30.8865067 92.1473153,30.4331733 92.8162315,29.95264 C93.2160363,29.6846741 93.5944512,29.3864013 93.9481034,29.06048 C94.195029,28.8180844 94.3364065,28.4889149 94.341798,28.14384 C94.350216,27.8991454 94.2696463,27.659639 94.1148768,27.46928 C93.9169827,27.2713933 93.6392377,27.1740038 93.3603609,27.2047139 C93.0814841,27.2354239 92.8318704,27.3908865 92.682266,27.62704 C92.5852818,27.8777491 92.5370379,28.1445018 92.5400985,28.41312 L91.3152709,28.41312 C91.3153151,27.9568713 91.4170952,27.5063141 91.6132759,27.09392 C91.950468,26.4556267 92.5501232,26.13648 93.4122414,26.13648 C94.0066896,26.1060789 94.589521,26.3081475 95.0362315,26.69952 C95.4434928,27.085832 95.6636717,27.6280108 95.6404433,28.18736 C95.6460886,28.6439744 95.4957111,29.0889622 95.2139409,29.44944 C94.9491928,29.764382 94.6397358,30.039269 94.2953202,30.26544 L93.7758621,30.62992 C93.4587192,30.85296 93.2418227,31.0143467 93.1251724,31.11408 C93.0085896,31.2136001 92.908888,31.3311603 92.8299015,31.46224 L95.6377094,31.46224 L95.6377094,32.56928 L91.2414532,32.56928 C91.2481138,32.1338684 91.3497946,31.7050965 91.5394581,31.31264 Z" id="Shape" fill="#414042"></path>
                                <path d="M100.233547,26.99056 C100.563448,27.5635733 100.728399,28.3795733 100.728399,29.43856 C100.728399,30.4975467 100.563448,31.3135467 100.233547,31.88656 C99.9036453,32.45776 99.3295074,32.74336 98.511133,32.74336 C97.6927586,32.74336 97.1186207,32.45776 96.7887192,31.88656 C96.4588177,31.31536 96.293867,30.49936 96.293867,29.43856 C96.293867,28.37776 96.4588177,27.56176 96.7887192,26.99056 C97.1186207,26.4175467 97.6927586,26.13104 98.511133,26.13104 C99.3295074,26.13104 99.9036453,26.4175467 100.233547,26.99056 Z M97.7729557,31.12224 C97.8436434,31.4719261 98.1582928,31.7193653 98.516601,31.70704 C98.8744055,31.7212734 99.1886005,31.4723614 99.2547783,31.12224 C99.3897481,30.5706098 99.4486136,30.0032682 99.4297537,29.43584 C99.4519334,28.8602184 99.3930372,28.2843407 99.2547783,27.72496 C99.1733708,27.3898596 98.8625292,27.1607848 98.516601,27.18096 C98.1699923,27.162498 97.8585831,27.3903037 97.7729557,27.72496 C97.6290349,28.2834358 97.5673329,28.8597338 97.5897783,29.43584 C97.5679164,30.0033685 97.6268246,30.5711216 97.7647537,31.12224 L97.7729557,31.12224 Z" id="Shape" fill="#414042"></path>
                                <path d="M101.641552,31.31264 C101.823818,30.8865067 102.249409,30.4331733 102.918325,29.95264 C103.31813,29.6846741 103.696545,29.3864013 104.050197,29.06048 C104.297123,28.8180844 104.4385,28.4889149 104.443892,28.14384 C104.45231,27.8991454 104.37174,27.659639 104.21697,27.46928 C104.019076,27.2713933 103.741331,27.1740038 103.462454,27.2047139 C103.183578,27.2354239 102.933964,27.3908865 102.78436,27.62704 C102.687375,27.8777491 102.639132,28.1445018 102.642192,28.41312 L101.414631,28.41312 C101.412916,27.9593225 101.511869,27.5107387 101.704433,27.09936 C102.041626,26.4610667 102.641281,26.14192 103.503399,26.14192 C104.097847,26.1115189 104.680679,26.3135875 105.127389,26.70496 C105.53465,27.091272 105.754829,27.6334508 105.731601,28.1928 C105.737246,28.6494144 105.586869,29.0944022 105.305099,29.45488 C105.04035,29.769822 104.730893,30.044709 104.386478,30.27088 L103.891626,30.62992 C103.574483,30.85296 103.357586,31.0143467 103.240936,31.11408 C103.124353,31.2136001 103.024652,31.3311603 102.945665,31.46224 L105.753473,31.46224 L105.753473,32.56928 L101.343547,32.56928 C101.350207,32.1338684 101.451888,31.7050965 101.641552,31.31264 L101.641552,31.31264 Z" id="Shape" fill="#414042"></path>
                                <path d="M110.33564,26.99056 C110.665542,27.5635733 110.830493,28.3795733 110.830493,29.43856 C110.830493,30.4975467 110.665542,31.3135467 110.33564,31.88656 C110.005739,32.45776 109.431601,32.74336 108.613227,32.74336 C107.794852,32.74336 107.220714,32.45776 106.890813,31.88656 C106.560911,31.31536 106.395961,30.49936 106.395961,29.43856 C106.395961,28.37776 106.560911,27.56176 106.890813,26.99056 C107.220714,26.4175467 107.794852,26.13104 108.613227,26.13104 C109.431601,26.13104 110.005739,26.4175467 110.33564,26.99056 Z M107.875049,31.12224 C107.945737,31.4719261 108.260386,31.7193653 108.618695,31.70704 C108.976499,31.7212734 109.290694,31.4723614 109.356872,31.12224 C109.491842,30.5706098 109.550707,30.0032682 109.531847,29.43584 C109.554027,28.8602184 109.495131,28.2843407 109.356872,27.72496 C109.275464,27.3898596 108.964623,27.1607848 108.618695,27.18096 C108.272086,27.162498 107.960677,27.3903037 107.875049,27.72496 C107.731129,28.2834358 107.669427,28.8597338 107.691872,29.43584 C107.67001,30.0033685 107.728918,30.5711216 107.866847,31.12224 L107.875049,31.12224 Z" id="Shape" fill="#414042"></path>
                            </g>
                        </g>
                    </g>
                </g>
            </g>
        </g>
    </g>
</svg>