<?xml version="1.0" encoding="UTF-8"?>
<svg width="22px" height="23px" viewBox="0 0 22 23" version="1.1" xmlns="http://www.w3.org/2000/svg">
    <g>
        <path d="M21.8128248 11.3585041c0 6.1630878-4.8830266 11.159416-10.906354 11.159416-6.02352213 0-10.90654868-4.9963282-10.90654868-11.159416 0-6.16288848 4.88302655-11.15941593 10.90654868-11.15941593 6.0233274 0 10.906354 4.99652745 10.906354 11.15941593"
              id="background"/>
        <path d="M9.93513043 13.3503881c-1.7532174 0-3.17408695-1.4629254-3.17408695-3.2693732 0-1.80429848 1.42086956-3.2686567 3.17408695-3.2686567 1.75286957 0 3.17373917 1.46435822 3.17373917 3.2686567 0 1.8064478-1.4208696 3.2693732-3.17373917 3.2693732m6.67478257 1.7161791l-2.2187826-2.2122985c-.0617391-.0745075-.1340869-.1343284-.2086956-.1877015.4358261-.7574329.6862609-1.6404179.6862609-2.5855523C14.8686957 7.27516418 12.6598261 5 9.93513043 5 7.20973913 5 5 7.27516418 5 10.0810149c0 2.8072836 2.20973913 5.081015 4.93513043 5.081015 1.03599997 0 1.99669567-.3291941 2.79078257-.8915821.0085218.0111044.014087.0243582.0236522.0338507L14.968 16.5173134c.3892174.4665672 1.0716522.5208359 1.5248696.1203582.4533913-.4006567.5062608-1.1038209.1170434-1.5711044"
              id="Fill-1" fill="#FFFFFF"/>
    </g>

</svg>
