<?xml version="1.0" encoding="UTF-8"?>
<svg width="22px" height="23px" viewBox="0 0 22 23" version="1.1" xmlns="http://www.w3.org/2000/svg">
    <defs/>
    <g id="Symbols" stroke="none" stroke-width="1" fill="none" fill-rule="evenodd">
        <g id="twitter">
            <g>
                <path d="M21.8128248 11.3511334c0 6.1630878-4.8830266 11.159416-10.906354 11.159416-6.02352213 0-10.90654868-4.9963282-10.90654868-11.159416 0-6.16288847 4.88302655-11.1594159 10.90654868-11.1594159 6.0233274 0 10.906354 4.99652743 10.906354 11.1594159"
                      id="background" fill="#A7A7A7"/>
                <path d="M16.7451327 8.11159606c-.4316814.18871488-.8959292.31552703-1.3835398.37283127.4978761-.29324205.8791151-.75751248 1.059823-1.3116303-.4654867.27201826-.9819469.46939952-1.5309734.57569534C14.4516814 7.2879361 13.8253097 7 13.1323894 7c-1.3306195 0-2.4092036 1.0615433-2.4092036 2.37034375 0 .18588503.021416.36593353.061593.53996862-2.00212393-.09869063-3.77787615-1.0427956-4.96601774-2.47663957-.20707964.3500157-.32672566.75733562-.32672566 1.19171587 0 .82189132.42637168 1.54739123 1.0722124 1.97257453-.3945133-.0122037-.76672568-.1188532-1.09150444-.2962488v.0295365c0 .3035002.05929204.5924975.16477876.8590329.2943363.7433633.95681416 1.3049095 1.7683186 1.4660334-.20265488.0534132-.41486727.0831265-.63539824.0831265-.15469027 0-.30566372-.0150335-.45327434-.0433319.30725664.9416289 1.19699115 1.6273342 2.25097345 1.6460819-.82495576.63636-1.86336284 1.0150278-2.99274337 1.0150278-.19486726 0-.3861947-.0111425-.57539823-.0330737 1.06725664.6724404 2.33433628 1.0647268 3.6939823 1.0647268 3.7669027 0 6.0815929-2.6076965 6.6922124-5.3130224.1081416-.4780659.1638938-.9596691.1638938-1.43083722 0-.10205107-.0019469-.20498645-.0063717-.30650692.4702655-.33409785.8791151-.75149907 1.2014159-1.226912"
                      id="tw" fill="#FFFFFF"/>
            </g>
        </g>
    </g>
</svg>
