<svg xmlns="http://www.w3.org/2000/svg" viewBox="0 0 371.02 118.4"><defs><style>.cls-1{fill:#676767;}.cls-2{fill:#58a45c;}</style></defs><title>x5gon_pilot</title><g id="Layer_2" data-name="Layer 2"><g id="Pilot"><path class="cls-1" d="M168.57,73.46q-11.17-12.39-11.17-30t11.17-30.1Q179.87,1,195.68,1a33.49,33.49,0,0,1,21.11,7.08,27.75,27.75,0,0,1,11,17.71h-5.45a21.75,21.75,0,0,0-9.13-14,28.6,28.6,0,0,0-17.57-5.59q-13.62,0-23.15,10.9a38.73,38.73,0,0,0-9.67,26.42,38.73,38.73,0,0,0,9.67,26.42q9.53,10.89,23.15,10.89A25.9,25.9,0,0,0,215.42,72a29.91,29.91,0,0,0,8.17-21.25v-2H195.68V43.5h32.14V83.81H223.6V67.2a26.14,26.14,0,0,1-10.76,13.48,29.85,29.85,0,0,1-17.16,5.18Q179.88,85.85,168.57,73.46Z"/><path class="cls-1" d="M240.3,74.44Q230.39,63,230.39,44.15q0-19.55,9.91-31.25t26.44-11.7q16.52,0,26.44,11.7t9.91,31.25q0,18.87-9.91,30.29T266.74,85.87Q250.22,85.87,240.3,74.44Zm48.88-3.72q8.4-9.91,8.4-26.57,0-17.07-8.4-27.4T266.74,6.43q-14,0-22.45,10.33t-8.4,27.4q0,16.66,8.4,26.57t22.45,10.05Q280.78,80.77,289.18,70.72Z"/><path class="cls-1" d="M306,85.47V.34h7.9l51.4,78.1V.34H371V85.47h-7.89L311.71,8.52V85.47Z"/><path id="_5" data-name="5" class="cls-2" d="M145.11,34a31.59,31.59,0,0,0-22.48-9,34.45,34.45,0,0,0-9.09,1,19,19,0,0,0-2.7,1l2.5-13h35.07V0H101.16L92,47.13h13.32l.72-.87a20,20,0,0,1,7.27-5.5,24,24,0,0,1,9.28-1.83,17.87,17.87,0,0,1,12.73,5A15.74,15.74,0,0,1,140.63,56a14.38,14.38,0,0,1-5.37,11.36A18.24,18.24,0,0,1,122.62,72a20,20,0,0,1-12-3.56c-3.41-2.5-5.06-5.55-5.06-9.34V56.68h-14v2.41c0,7.8,3.24,14.4,9.63,19.61A33.16,33.16,0,0,0,122.62,86a31.9,31.9,0,0,0,22.31-8.55A28,28,0,0,0,154.59,56,29.43,29.43,0,0,0,145.11,34Z"/><g id="x"><polygon class="cls-1" points="0 14.39 0 21.19 29.73 42.82 34.42 39.43 0 14.39"/><polygon class="cls-1" points="0 85.52 43.01 54.39 43.01 47.59 0 78.71 0 85.52"/><polygon class="cls-2" points="0 0.15 0 6.95 0 14.39 34.42 39.43 29.73 42.82 0 64.31 0 71.12 0 78.71 43.01 47.59 43.01 38.23 43.01 31.42 0 0.15"/><polygon class="cls-2" points="59.08 42.81 88.67 21.19 88.67 14.38 54.4 39.42 59.08 42.81"/><polygon class="cls-2" points="45.65 54.38 88.67 85.52 88.67 78.7 45.65 47.56 45.65 54.38"/><polygon class="cls-1" points="45.65 31.42 45.65 38.24 45.65 47.56 88.67 78.7 88.67 71.12 88.67 64.3 59.08 42.81 54.4 39.42 88.67 14.38 88.67 6.95 88.67 0.13 45.65 31.42"/></g><path class="cls-1" d="M316,118.4,318.47,98h1.33a.8.8,0,0,1,.9.9l-.25,3.24a12.26,12.26,0,0,1,1.25-1.79A9.07,9.07,0,0,1,323.12,99a6.11,6.11,0,0,1,1.55-.88,4.61,4.61,0,0,1,1.65-.31,3.58,3.58,0,0,1,3,1.41,6.7,6.7,0,0,1,1.08,4.13,12.1,12.1,0,0,1-.25,2.46,12.66,12.66,0,0,1-.73,2.35,11.67,11.67,0,0,1-1.14,2.08,9,9,0,0,1-1.48,1.68,6.61,6.61,0,0,1-1.78,1.12,5.12,5.12,0,0,1-2,.41A4.72,4.72,0,0,1,321,113a4.22,4.22,0,0,1-1.56-1.27l-.81,6.64ZM325.31,100a2.81,2.81,0,0,0-1.46.45,6,6,0,0,0-1.43,1.26,10.78,10.78,0,0,0-1.28,1.92,15.55,15.55,0,0,0-1,2.42l-.48,3.87a3.16,3.16,0,0,0,1.37,1.16,4.17,4.17,0,0,0,1.63.34,3.35,3.35,0,0,0,1.47-.33,4.62,4.62,0,0,0,1.26-.89,6.49,6.49,0,0,0,1-1.32,9.25,9.25,0,0,0,.76-1.62,11.18,11.18,0,0,0,.47-1.79,10.31,10.31,0,0,0,.17-1.82,4.76,4.76,0,0,0-.64-2.72A2.08,2.08,0,0,0,325.31,100Z"/><path class="cls-1" d="M337,98.06l-1.83,15.2h-2.62l1.83-15.2Zm1-4.77a1.69,1.69,0,0,1-.16.73,2.09,2.09,0,0,1-.42.6,2,2,0,0,1-.59.41,1.64,1.64,0,0,1-.69.15,1.6,1.6,0,0,1-.67-.15,1.81,1.81,0,0,1-.58-.41,2.12,2.12,0,0,1-.4-.6,1.78,1.78,0,0,1-.15-.73,1.83,1.83,0,0,1,.15-.74,2,2,0,0,1,1-1,1.54,1.54,0,0,1,.67-.16,1.66,1.66,0,0,1,.69.15,2,2,0,0,1,.59.41,1.93,1.93,0,0,1,.41.61A1.88,1.88,0,0,1,338,93.29Z"/><path class="cls-1" d="M339.74,113.25l2.69-22.1h2.63l-2.69,22.1Z"/><path class="cls-1" d="M352,113.46a5.92,5.92,0,0,1-2.28-.43A5,5,0,0,1,348,111.8a5.72,5.72,0,0,1-1.17-2,7.87,7.87,0,0,1-.42-2.67,10.78,10.78,0,0,1,.6-3.62,9.85,9.85,0,0,1,1.64-3,7.8,7.8,0,0,1,2.46-2,6.57,6.57,0,0,1,3.07-.74,5.91,5.91,0,0,1,2.28.43,5,5,0,0,1,1.79,1.24,5.71,5.71,0,0,1,1.17,2,7.89,7.89,0,0,1,.42,2.66,10.73,10.73,0,0,1-.6,3.6,9.82,9.82,0,0,1-1.64,3,7.85,7.85,0,0,1-2.47,2A6.52,6.52,0,0,1,352,113.46Zm.24-2.08a3.52,3.52,0,0,0,2-.6,5.26,5.26,0,0,0,1.53-1.6,8.23,8.23,0,0,0,1-2.3,10.66,10.66,0,0,0,.34-2.73,5.11,5.11,0,0,0-.83-3.17,2.83,2.83,0,0,0-2.38-1.06,3.54,3.54,0,0,0-2,.59,5.22,5.22,0,0,0-1.52,1.59,8.2,8.2,0,0,0-1,2.3,10.63,10.63,0,0,0-.35,2.73,5.17,5.17,0,0,0,.82,3.17A2.82,2.82,0,0,0,352.27,111.38Z"/><path class="cls-1" d="M363,110.39c0-.06,0-.14,0-.23s0-.23,0-.41,0-.42.07-.71.07-.67.13-1.14l.94-7.6H362.5a.47.47,0,0,1-.32-.11.45.45,0,0,1-.13-.35s0-.09,0-.18,0-.19,0-.31l0-.35c0-.12,0-.23,0-.34l2.34-.31,1.13-4.7a.71.71,0,0,1,.23-.37.59.59,0,0,1,.4-.14h1.41L367,98.36h4l-.22,1.94h-4l-.92,7.47q-.08.62-.11,1l-.06.6,0,.32c0,.06,0,.1,0,.13a1.58,1.58,0,0,0,.35,1.13,1.27,1.27,0,0,0,1,.37,2,2,0,0,0,.69-.11,3,3,0,0,0,.52-.25l.37-.25a.47.47,0,0,1,.27-.11.28.28,0,0,1,.19.06.78.78,0,0,1,.14.2l.55,1.28a5.43,5.43,0,0,1-1.66,1,5.12,5.12,0,0,1-1.88.37,3.2,3.2,0,0,1-2.29-.79A3.12,3.12,0,0,1,363,110.39Z"/></g></g></svg>