<svg xmlns="http://www.w3.org/2000/svg" viewBox="0 0 371.34 113.66"><defs><style>.cls-1{fill:#676767;}.cls-2{fill:#5eabde;}</style></defs><title>x5gon_network</title><g id="Layer_2" data-name="Layer 2"><g id="Network"><path class="cls-1" d="M168.57,73.46q-11.17-12.39-11.17-30t11.17-30.1Q179.87,1,195.68,1a33.49,33.49,0,0,1,21.11,7.08,27.75,27.75,0,0,1,11,17.71h-5.45a21.75,21.75,0,0,0-9.13-14,28.6,28.6,0,0,0-17.57-5.59q-13.62,0-23.15,10.9a38.73,38.73,0,0,0-9.67,26.42,38.73,38.73,0,0,0,9.67,26.42q9.53,10.89,23.15,10.89A25.9,25.9,0,0,0,215.42,72a29.91,29.91,0,0,0,8.17-21.25v-2H195.68V43.5h32.14V83.81H223.6V67.2a26.14,26.14,0,0,1-10.76,13.48,29.85,29.85,0,0,1-17.16,5.18Q179.88,85.85,168.57,73.46Z"/><path class="cls-1" d="M240.3,74.44Q230.39,63,230.39,44.15q0-19.55,9.91-31.25t26.44-11.7q16.52,0,26.44,11.7t9.91,31.25q0,18.87-9.91,30.29T266.74,85.87Q250.22,85.87,240.3,74.44Zm48.88-3.72q8.4-9.91,8.4-26.57,0-17.07-8.4-27.4T266.74,6.43q-14,0-22.45,10.33t-8.4,27.4q0,16.66,8.4,26.57t22.45,10.05Q280.78,80.77,289.18,70.72Z"/><path class="cls-1" d="M306,85.47V.34h7.9l51.4,78.1V.34H371V85.47h-7.89L311.71,8.52V85.47Z"/><path id="_5" data-name="5" class="cls-2" d="M145.11,34a31.59,31.59,0,0,0-22.48-9,34.45,34.45,0,0,0-9.09,1,19,19,0,0,0-2.7,1l2.5-13h35.07V0H101.16L92,47.13h13.32l.72-.87a20,20,0,0,1,7.27-5.5,24,24,0,0,1,9.28-1.83,17.87,17.87,0,0,1,12.73,5A15.74,15.74,0,0,1,140.63,56a14.38,14.38,0,0,1-5.37,11.36A18.24,18.24,0,0,1,122.62,72a20,20,0,0,1-12-3.56c-3.41-2.5-5.06-5.55-5.06-9.34V56.68h-14v2.41c0,7.8,3.24,14.4,9.63,19.61A33.16,33.16,0,0,0,122.62,86a31.9,31.9,0,0,0,22.31-8.55A28,28,0,0,0,154.59,56,29.43,29.43,0,0,0,145.11,34Z"/><g id="x"><polygon class="cls-1" points="0 14.39 0 21.19 29.73 42.82 34.42 39.43 0 14.39"/><polygon class="cls-1" points="0 85.52 43.01 54.39 43.01 47.59 0 78.71 0 85.52"/><polygon class="cls-2" points="0 0.15 0 6.95 0 14.39 34.42 39.43 29.73 42.82 0 64.31 0 71.12 0 78.71 43.01 47.59 43.01 38.23 43.01 31.42 0 0.15"/><polygon class="cls-2" points="59.08 42.81 88.67 21.19 88.67 14.38 54.4 39.42 59.08 42.81"/><polygon class="cls-2" points="45.65 54.38 88.67 85.52 88.67 78.7 45.65 47.56 45.65 54.38"/><polygon class="cls-1" points="45.65 31.42 45.65 38.24 45.65 47.56 88.67 78.7 88.67 71.12 88.67 64.3 59.08 42.81 54.4 39.42 88.67 14.38 88.67 6.95 88.67 0.13 45.65 31.42"/></g><g id="network-2" data-name="network"><path class="cls-1" d="M270.89,113.42l1.82-15.21H274a.8.8,0,0,1,.9.9l-.23,2.94a9.43,9.43,0,0,1,2.74-3,5.59,5.59,0,0,1,3.16-1,3.22,3.22,0,0,1,2.63,1.14,5.13,5.13,0,0,1,.94,3.33q0,.3,0,.62c0,.21,0,.43-.06.66L283,113.42h-2.67l1.14-9.67q0-.3.05-.58c0-.19,0-.36,0-.53a3,3,0,0,0-.46-1.82,1.7,1.7,0,0,0-1.43-.59,3.13,3.13,0,0,0-1.46.39,5.71,5.71,0,0,0-1.43,1.1,9,9,0,0,0-1.28,1.72,12.12,12.12,0,0,0-1,2.26l-.87,7.72Z"/><path class="cls-1" d="M298.82,101.48a4.11,4.11,0,0,1-.4,1.82,3.8,3.8,0,0,1-1.49,1.5,11.07,11.07,0,0,1-3,1.16,32.75,32.75,0,0,1-4.86.79q0,.17,0,.32v.32a4.69,4.69,0,0,0,.88,3.07,3.24,3.24,0,0,0,2.65,1.06,5,5,0,0,0,1.28-.15,5.48,5.48,0,0,0,1-.37,4.52,4.52,0,0,0,.78-.48l.62-.48c.19-.15.37-.27.53-.37a.9.9,0,0,1,.48-.15.66.66,0,0,1,.5.25l.66.83A13.77,13.77,0,0,1,297,112a8.69,8.69,0,0,1-1.49.94,6.66,6.66,0,0,1-1.6.55,8.81,8.81,0,0,1-1.79.17,6,6,0,0,1-2.34-.43A4.85,4.85,0,0,1,288,112a5.55,5.55,0,0,1-1.11-1.94,7.82,7.82,0,0,1-.39-2.55,11.17,11.17,0,0,1,.25-2.33,11,11,0,0,1,.72-2.21,10.08,10.08,0,0,1,1.16-2,7.77,7.77,0,0,1,1.56-1.55,7.31,7.31,0,0,1,1.94-1,6.75,6.75,0,0,1,2.27-.37,5.46,5.46,0,0,1,2,.33,4.27,4.27,0,0,1,1.38.84,3.38,3.38,0,0,1,.8,1.12A3,3,0,0,1,298.82,101.48Zm-4.59-1.54a3.9,3.9,0,0,0-1.74.39,4.62,4.62,0,0,0-1.41,1.07A6.55,6.55,0,0,0,290,103a9.58,9.58,0,0,0-.67,2,29,29,0,0,0,3.71-.65,9.24,9.24,0,0,0,2.15-.79,2.07,2.07,0,0,0,1.23-2,1.5,1.5,0,0,0-.5-1.09,2.09,2.09,0,0,0-.68-.4A2.91,2.91,0,0,0,294.23,99.93Z"/><path class="cls-1" d="M301.82,110.55c0-.06,0-.14,0-.23s0-.23,0-.41,0-.42.07-.71.08-.67.13-1.14l.95-7.6h-1.7a.47.47,0,0,1-.32-.11.45.45,0,0,1-.13-.35s0-.09,0-.18l0-.31,0-.35c0-.12,0-.24,0-.34l2.34-.32,1.13-4.7a.71.71,0,0,1,.22-.37.6.6,0,0,1,.41-.14h1.41l-.66,5.24h4l-.23,1.93h-4l-.92,7.47c0,.41-.09.74-.11,1l-.06.6c0,.15,0,.26,0,.32s0,.1,0,.13a1.58,1.58,0,0,0,.35,1.13,1.28,1.28,0,0,0,1,.37,2,2,0,0,0,.69-.11,2.94,2.94,0,0,0,.52-.25l.37-.25a.46.46,0,0,1,.27-.11.28.28,0,0,1,.19.06.76.76,0,0,1,.14.2l.55,1.28a5.41,5.41,0,0,1-1.66,1,5.12,5.12,0,0,1-1.88.37,3.2,3.2,0,0,1-2.29-.79A3.12,3.12,0,0,1,301.82,110.55Z"/><path class="cls-1" d="M310.92,98.22h2a.76.76,0,0,1,.49.15.59.59,0,0,1,.22.41l1.39,9.78a8.27,8.27,0,0,1,.08,1c0,.33,0,.65,0,1l.37-1,.4-1L320,98.72a.86.86,0,0,1,.29-.37.75.75,0,0,1,.46-.15h1.11a.67.67,0,0,1,.47.15.6.6,0,0,1,.19.38l1.7,9.84q.09.53.14,1t.1,1q.15-.48.29-1a10.53,10.53,0,0,1,.35-1L329,98.78a.87.87,0,0,1,.3-.4.77.77,0,0,1,.48-.16h1.92l-6.37,15.19h-2c-.23,0-.37-.17-.44-.51L321,102.6c0-.16-.06-.32-.08-.49l-.06-.49-.15.5c0,.16-.11.33-.18.5l-4.4,10.29q-.21.51-.6.51h-2Z"/><path class="cls-1" d="M337.47,113.63a5.92,5.92,0,0,1-2.28-.43,5,5,0,0,1-1.79-1.24,5.72,5.72,0,0,1-1.17-2,7.87,7.87,0,0,1-.42-2.67,10.77,10.77,0,0,1,.6-3.61,9.84,9.84,0,0,1,1.64-3,7.79,7.79,0,0,1,2.46-2,6.58,6.58,0,0,1,3.07-.73,5.91,5.91,0,0,1,2.28.43,5,5,0,0,1,1.79,1.24,5.7,5.7,0,0,1,1.17,2,7.89,7.89,0,0,1,.42,2.66,10.73,10.73,0,0,1-.6,3.6,9.82,9.82,0,0,1-1.64,3,7.85,7.85,0,0,1-2.47,2A6.52,6.52,0,0,1,337.47,113.63Zm.24-2.08a3.52,3.52,0,0,0,2-.6,5.26,5.26,0,0,0,1.53-1.6,8.23,8.23,0,0,0,1-2.3,10.66,10.66,0,0,0,.34-2.73,5.11,5.11,0,0,0-.83-3.17,2.84,2.84,0,0,0-2.38-1.07,3.54,3.54,0,0,0-2,.59,5.22,5.22,0,0,0-1.52,1.59,8.2,8.2,0,0,0-1,2.3,10.62,10.62,0,0,0-.35,2.73,5.17,5.17,0,0,0,.82,3.17A2.82,2.82,0,0,0,337.71,111.54Z"/><path class="cls-1" d="M347.13,113.42,349,98.21h1.33a1,1,0,0,1,.66.2.73.73,0,0,1,.24.6s0,.1,0,.17v.23c0,.08,0,.15,0,.21s0,.09,0,.11l-.21,2.76a10.45,10.45,0,0,1,2.18-3.24,3.68,3.68,0,0,1,2.54-1.14,3.18,3.18,0,0,1,1.26.27l-.48,2.57a3.63,3.63,0,0,0-1.37-.29,3.3,3.3,0,0,0-2.59,1.42,11.75,11.75,0,0,0-1.91,4.3l-.84,7Z"/><path class="cls-1" d="M363.11,91.32l-1.59,13H362a1.28,1.28,0,0,0,.5-.08,1.4,1.4,0,0,0,.44-.34l5-5.14a3.13,3.13,0,0,1,.47-.39,1,1,0,0,1,.58-.15h2.35l-5.87,6q-.22.24-.44.44a2.73,2.73,0,0,1-.47.35,1.78,1.78,0,0,1,.41.42c.11.16.22.33.33.52l4.56,7.5h-2.29a1,1,0,0,1-.53-.12,1.08,1.08,0,0,1-.37-.41l-3.87-6.22a1.19,1.19,0,0,0-.38-.4,1.3,1.3,0,0,0-.61-.11h-.51l-.88,7.26h-2.64l2.71-22.09Z"/></g></g></g></svg>